              <svg
                class="fp-logo"
                xmlns:dc="http://purl.org/dc/elements/1.1/"
                xmlns:cc="http://creativecommons.org/ns#"
                xmlns:rdf="http://www.w3.org/1999/02/22-rdf-syntax-ns#"
                xmlns:svg="http://www.w3.org/2000/svg"
                xmlns="http://www.w3.org/2000/svg"
                xmlns:sodipodi="http://sodipodi.sourceforge.net/DTD/sodipodi-0.dtd"
                xmlns:inkscape="http://www.inkscape.org/namespaces/inkscape"
                width="146.3588mm"
                height="37.12355mm"
                viewBox="0 0 146.3588 37.12355"
                version="1.1"
                id="svg6100"
                sodipodi:docname="logo-name.svg"
                inkscape:version="0.92.3 (2405546, 2018-03-11)">
                <defs
                  id="defs6094" />
                <sodipodi:namedview
                  id="base"
                  pagecolor="#ffffff"
                  bordercolor="#666666"
                  borderopacity="1.0"
                  inkscape:pageopacity="0.0"
                  inkscape:pageshadow="2"
                  inkscape:zoom="1.33"
                  inkscape:cx="229.59105"
                  inkscape:cy="24.666019"
                  inkscape:document-units="mm"
                  inkscape:current-layer="layer1"
                  showgrid="false"
                  fit-margin-top="0"
                  fit-margin-left="0"
                  fit-margin-right="0"
                  fit-margin-bottom="0"
                  inkscape:window-width="3840"
                  inkscape:window-height="1947"
                  inkscape:window-x="0"
                  inkscape:window-y="55"
                  inkscape:window-maximized="1" />
                <metadata
                  id="metadata6097">
                  <rdf:RDF>
                    <cc:Work
                      rdf:about="">
                      <dc:format>image/svg+xml</dc:format>
                      <dc:type
                        rdf:resource="http://purl.org/dc/dcmitype/StillImage" />
                      <dc:title></dc:title>
                    </cc:Work>
                  </rdf:RDF>
                </metadata>
                <g
                  inkscape:label="logo"
                  inkscape:groupmode="layer"
                  id="layer1"
                  transform="translate(575.13177,206.8832)">
                  <g
                    aria-label="COMPLETE"
                    transform="matrix(0.02001654,0,0,0.01927284,-485.22725,-186.80993)"
                    style="font-style:normal;font-variant:normal;font-weight:normal;font-stretch:normal;line-height:0.01%;font-family:Keraleeyam;-inkscape-font-specification:Keraleeyam;letter-spacing:0px;word-spacing:9.81247044px;display:inline;fill:#b272ae;fill-opacity:1;stroke:none"
                    id="logo-complete"
                    inkscape:label="#logo-complete">
                    <desc
                      id="desc11666">The &quot;COMPLETE&quot; word</desc>
                    <title
                      id="title11664">COMPLETE</title>
                    <path
                      d="m -1077.7227,52.942383 q 21.3135,25.576172 52.5733,36.469726 31.25975,10.893551 79.5703,10.893551 48.31055,0 91.41113,-13.735348 v 91.411138 q -54.46777,17.52441 -113.67187,17.52441 -118.88186,0 -181.87496,-83.35938 -62.9932,-83.359371 -62.9932,-233.97461 0.4736,-232.08007 140.6689,-292.23144 45.4688,-19.41895 105.62015,-19.41895 60.15137,0 105.62012,17.52442 v 90.46387 q -42.62695,-12.78809 -89.5166,-12.78809 -46.41602,0 -76.72847,9.94629 -29.8389,9.94629 -50.6788,34.57519 -20.3662,24.62891 -31.2597,66.78223 -10.4199,41.67969 -10.4199,105.14648 0,63.466802 10.4199,106.093755 10.4199,42.626953 31.2597,68.676758 z"
                      style="font-style:normal;font-variant:normal;font-weight:normal;font-stretch:normal;font-size:970px;line-height:1.25;font-family:Keraleeyam;-inkscape-font-specification:Keraleeyam;letter-spacing:98.12471008px;word-spacing:0px;fill:#b272ae;fill-opacity:1"
                      id="path11638" />
                    <path
                      d="m -709.62726,-119.93359 q 0,-311.17676 222.13379,-311.17676 222.13379,0 222.13379,311.17676 0,224.50195 -118.88184,289.38964 -43.10058,23.20801 -103.72558,23.20801 -116.51367,0 -171.45508,-88.0957 -50.20508,-79.09668 -50.20508,-224.50195 z m 317.80762,164.350582 q 28.8916,-53.5205076 28.8916,-167.666012 0,-114.14551 -27.4707,-164.82422 -26.99707,-51.15235 -96.14746,-51.15235 -68.67676,0 -97.09473,50.67872 -28.41797,50.67871 -28.41797,165.77148 0,114.61914 27.94434,167.666015 28.41797,52.573242 95.67383,52.573242 67.72949,0 96.62109,-53.046875 z"
                      style="font-style:normal;font-variant:normal;font-weight:normal;font-stretch:normal;font-size:970px;line-height:1.25;font-family:Keraleeyam;-inkscape-font-specification:Keraleeyam;letter-spacing:98.12471008px;word-spacing:0px;fill:#b272ae;fill-opacity:1"
                      id="path11640" />
                    <path
                      d="M 382.17908,185.08594 H 295.50427 V -297.07227 L 173.30701,156.66797 H 86.632202 l -121.25,-453.74024 V 185.08594 H -122.23987 V -423.05859 H 17.955444 L 129.25916,8.4208984 241.98376,-423.05859 h 140.19532 z"
                      style="font-style:normal;font-variant:normal;font-weight:normal;font-stretch:normal;font-size:970px;line-height:1.25;font-family:Keraleeyam;-inkscape-font-specification:Keraleeyam;letter-spacing:98.12471008px;word-spacing:0px;fill:#b272ae;fill-opacity:1"
                      id="path11642" />
                    <path
                      d="m 684.43958,-423.05859 q 214.55566,0 214.55566,194.66308 0,161.508791 -113.67188,201.76758 -41.20605,14.682617 -100.88378,14.682617 h -63.4668 V 185.08594 h -94.25293 v -608.14453 z m 116.9873,203.66211 q 0,-71.99219 -38.83789,-97.56836 -26.04981,-17.05078 -86.67481,-17.52442 h -54.9414 v 228.29102 h 54.9414 q 61.09864,0 82.41211,-13.73535 21.78711,-13.73536 32.20704,-36.46973 10.89355,-22.73438 10.89355,-62.99316 z"
                      style="font-style:normal;font-variant:normal;font-weight:normal;font-stretch:normal;font-size:970px;line-height:1.25;font-family:Keraleeyam;-inkscape-font-specification:Keraleeyam;letter-spacing:98.12471008px;word-spacing:0px;fill:#b272ae;fill-opacity:1"
                      id="path11644" />
                    <path
                      d="m 1323.9265,185.08594 h -282.7588 v -608.14453 h 92.3584 V 86.570312 h 190.4004 z"
                      style="font-style:normal;font-variant:normal;font-weight:normal;font-stretch:normal;font-size:970px;line-height:1.25;font-family:Keraleeyam;-inkscape-font-specification:Keraleeyam;letter-spacing:98.12471008px;word-spacing:0px;fill:#b272ae;fill-opacity:1"
                      id="path11646" />
                    <path
                      d="m 1801.9048,185.08594 h -332.4902 v -608.14453 h 332.4902 v 92.83203 h -238.2373 v 153.93066 h 209.8193 v 97.094728 H 1563.6675 V 89.412109 h 238.2373 z"
                      style="font-style:normal;font-variant:normal;font-weight:normal;font-stretch:normal;font-size:970px;line-height:1.25;font-family:Keraleeyam;-inkscape-font-specification:Keraleeyam;letter-spacing:98.12471008px;word-spacing:0px;fill:#b272ae;fill-opacity:1"
                      id="path11648" />
                    <path
                      d="m 2343.8235,-324.54297 h -149.1943 v 509.62891 h -99.4629 v -509.62891 h -150.1416 v -98.51562 h 398.7988 z"
                      style="font-style:normal;font-variant:normal;font-weight:normal;font-stretch:normal;font-size:970px;line-height:1.25;font-family:Keraleeyam;-inkscape-font-specification:Keraleeyam;letter-spacing:98.12471008px;word-spacing:0px;fill:#b272ae;fill-opacity:1"
                      id="path11650" />
                    <path
                      d="m 2820.3809,185.08594 h -332.4903 v -608.14453 h 332.4903 v 92.83203 h -238.2373 v 153.93066 h 209.8193 v 97.094728 H 2582.1436 V 89.412109 h 238.2373 z"
                      style="font-style:normal;font-variant:normal;font-weight:normal;font-stretch:normal;font-size:970px;line-height:1.25;font-family:Keraleeyam;-inkscape-font-specification:Keraleeyam;letter-spacing:98.12471008px;word-spacing:0px;fill:#b272ae;fill-opacity:1"
                      id="path11652" />
                  </g>
                  <path
                    sodipodi:nodetypes="cccc"
                    inkscape:connector-curvature="0"
                    id="logo-ftop"
                    d="m -540.79655,-206.81587 -4.47778,7.98215 c -3.93211,-0.47414 -12.76954,-0.68118 -19.48797,9.02368 0.92575,-7.98374 6.16786,-17.99015 23.96575,-17.00583 z"
                    style="display:inline;fill:#453a62;fill-opacity:1;stroke:none;stroke-width:0.01927284"
                    inkscape:export-xdpi="100"
                    inkscape:export-ydpi="100"
                    inkscape:label="#logo-ftop">
                    <desc
                      id="desc11670">Part of the logo at the top</desc>
                    <title
                      id="title11668">top of the F</title>
                  </path>
                  <g
                    id="logo-fbottom"
                    inkscape:label="#logo-fbottom">
                    <title
                      id="title11684">bottom of the f grouped</title>
                    <path
                      inkscape:export-ydpi="100"
                      inkscape:export-xdpi="100"
                      sodipodi:nodetypes="cccc"
                      inkscape:connector-curvature="0"
                      id="fmid"
                      d="m -551.81512,-197.7965 -4.60619,8.01751 c -9.8107,3.44487 -9.36945,10.27504 -9.17387,13.89571 -1.9699,-6.25395 -1.64351,-15.92486 13.78006,-21.91322 z"
                      style="display:inline;fill:#5f5088;fill-opacity:1;stroke:none;stroke-width:0.01927284">
                      <title
                        id="title11672">Middle of the F</title>
                    </path>
                    <path
                      inkscape:export-ydpi="100"
                      inkscape:export-xdpi="100"
                      sodipodi:nodetypes="cccc"
                      inkscape:connector-curvature="0"
                      id="fbottom"
                      d="m -556.4356,-189.782 c -9.24567,3.01527 -9.50153,9.8934 -9.19313,13.79935 2.06661,5.57264 7.83759,6.78403 12.6237,6.01315 -3.10936,-0.34047 -13.83118,-9.21699 -3.43057,-19.8125 z"
                      style="display:inline;fill:#5f5088;fill-opacity:1;stroke:none;stroke-width:0.01927284">
                      <title
                        id="title11674">Bottom of the F</title>
                    </path>
                  </g>
                  <path
                    sodipodi:nodetypes="cscsc"
                    inkscape:connector-curvature="0"
                    id="logo-ring"
                    d="m -566.84544,-199.43724 c -7.18087,2.16736 -8.21224,5.99227 -6.09611,10.05753 7.16468,13.764 38.38017,23.31037 31.79456,4.64118 0,0 7.95866,11.80201 -8.60507,12.40144 -15.62703,0.56551 -37.53694,-23.46643 -17.09338,-27.10015 z"
                    style="display:inline;fill:#8f4e8b;fill-opacity:1;stroke:none;stroke-width:0.01927284"
                    inkscape:export-xdpi="100"
                    inkscape:export-ydpi="100">
                    <title
                      id="title11676">ring of the F</title>
                  </path>
                  <g
                    aria-label="FP"
                    transform="matrix(0.02001654,0,0,0.01927284,-506.35029,-186.80993)"
                    style="font-style:normal;font-variant:normal;font-weight:normal;font-stretch:normal;line-height:0.01%;font-family:Keraleeyam;-inkscape-font-specification:Keraleeyam;letter-spacing:0px;word-spacing:9.81247044px;display:inline;fill:#e9d7e8;fill-opacity:1;stroke:none"
                    id="logo-fp"
                    inkscape:label="#logo-fp">
                    <desc
                      id="desc11662">The word &quot;FP&quot;</desc>
                    <title
                      id="title11660">FP</title>
                    <path
                      d="m -880.69141,-330.22656 h -238.23729 v 168.13965 h 209.81933 v 97.094723 H -1118.9287 V 184.13867 l -94.2529,0.94727 v -608.14453 h 332.49019 z"
                      style="font-style:normal;font-variant:normal;font-weight:normal;font-stretch:normal;font-size:970px;line-height:1.25;font-family:Keraleeyam;-inkscape-font-specification:Keraleeyam;letter-spacing:98.12471008px;word-spacing:0px;fill:#e9d7e8;fill-opacity:1"
                      id="path11655" />
                    <path
                      d="m -578.43097,-423.05859 q 214.55566,0 214.55566,194.66308 0,161.508791 -113.67187,201.76758 -41.20605,14.682617 -100.88379,14.682617 h -63.4668 V 185.08594 h -94.25293 v -608.14453 z m 116.98731,203.66211 q 0,-71.99219 -38.8379,-97.56836 -26.0498,-17.05078 -86.6748,-17.52442 h -54.94141 v 228.29102 h 54.94141 q 61.09863,0 82.41211,-13.73535 21.78711,-13.73536 32.20703,-36.46973 10.89356,-22.73438 10.89356,-62.99316 z"
                      style="font-style:normal;font-variant:normal;font-weight:normal;font-stretch:normal;font-size:970px;line-height:1.25;font-family:Keraleeyam;-inkscape-font-specification:Keraleeyam;letter-spacing:98.12471008px;word-spacing:0px;fill:#e9d7e8;fill-opacity:1"
                      id="path11657" />
                  </g>
                </g>
              </svg>
